<svg id="Layer_1" data-name="Layer 1" xmlns="http://www.w3.org/2000/svg" viewBox="0 0 1056.14 389.58"><defs><style>.cls-1{fill:#5b5b5b;}.cls-2,.cls-4{fill:#008dd2;}.cls-3{fill:#00a8e7;}.cls-3,.cls-4{fill-rule:evenodd;}</style></defs><path class="cls-1" d="M154.23,387.08H179V293.13q0-17.33,29.67-17.32t29.67,17.32v93.95H263V288.19q0-32.16-42-32.12T179,275.81V258.52H154.23Z"/><path class="cls-1" d="M307.51,312.91V293.13q0-17.33,29.67-17.32t29.67,17.32v19.78Zm-24.72-24.72v69.23q0,32.16,54.39,32.16t54.39-32.16V342.58H366.85v9.89q0,17.32-29.67,17.29t-29.67-17.29V332.69h84.06v-44.5q0-32.16-54.39-32.12T282.79,288.19Z"/><polygon class="cls-1" points="436.08 387.08 465.27 341.08 494.42 387.08 523.1 387.08 477.14 324.31 523.1 258.52 494.42 258.52 465.27 309.47 436.08 258.52 407.4 258.52 453.4 324.31 407.4 387.08 436.08 387.08"/><path class="cls-1" d="M577.49,219v39.55h24.73V278.3H577.49v69.23q0,19.75,24.73,19.77v19.78H577.49q-24.74,0-24.72-29.66V278.3H538.92V258.52h13.85V219Z"/><path class="cls-1" d="M1056.14,220.19c0-9.06-4.79-13.61-14.32-13.61s-14.36,4.55-14.36,13.61,4.78,13.61,14.36,13.61,14.32-4.55,14.32-13.61m-26.71,38.33V387.08h24.73V258.52Z"/><polygon class="cls-2" points="671.44 387.08 687.26 314.89 703.09 387.08 727.81 387.08 756.49 258.52 731.77 258.52 713.97 341.59 699.65 258.52 674.88 258.52 659.58 341.59 642.76 258.52 618.04 258.52 646.72 387.08 671.44 387.08"/><path class="cls-2" d="M797,312.91V293.13q0-17.33,29.66-17.32t29.67,17.32v19.78Zm-24.73-24.72v69.23q0,32.16,54.39,32.16t54.4-32.16V342.58H856.37v9.89q0,17.32-29.67,17.29T797,352.47V332.69H881.1v-44.5q0-32.16-54.4-32.12T772.31,288.19Z"/><path class="cls-2" d="M925.6,293.13v59.34q0,17.32,29.67,17.29t29.66-17.29V293.13q0-17.33-29.66-17.32T925.6,293.13m-24.73,93.95V204.13H925.6v71.68q0-19.76,42-19.74t42,32.12v69.23q0,32.16-42,32.16t-42-19.82v17.32Z"/><polygon class="cls-3" points="138.85 246.28 138.85 0 261.81 122.82 138.85 246.28"/><polygon class="cls-4" points="138.85 246.28 138.85 107.72 0 107.72 138.85 246.28"/><polygon class="cls-4" points="138.85 246.28 201.14 246.28 261.81 122.11 138.85 246.28"/><polygon class="cls-4" points="323.85 59.46 261.81 59.46 261.81 121.86 323.85 59.46"/><polygon class="cls-4" points="138.85 313.18 138.85 246.28 70.55 246.28 138.85 313.18"/></svg>